<?xml version="1.0" encoding="iso-8859-1"?><!-- Generator: Adobe Illustrator 16.0.0, SVG Export Plug-In . SVG Version: 6.00 Build 0) --><!DOCTYPE svg PUBLIC "-//W3C//DTD SVG 1.1//EN" "http://www.w3.org/Graphics/SVG/1.1/DTD/svg11.dtd"><svg version="1.1" id="Layer_1" xmlns="http://www.w3.org/2000/svg" xmlns:xlink="http://www.w3.org/1999/xlink" x="0px" y="0px" width="174.808px" height="222.995px" viewBox="337.029 155.764 174.808 222.995" style="enable-background:new 337.029 155.764 174.808 222.995;" xml:space="preserve"><g id="layer1"><path id="path2830" style="fill:#919191;" d="M337.121,285.735l16.777,0.164l-0.584,74.714h111.664v-74.442h17.684v92.588H337.029	L337.121,285.735z"/><rect id="rect3604" x="364.479" y="329.903" style="fill:#919191;" width="87.472" height="18.613"/><rect id="rect3606" x="365.395" y="300.586" transform="matrix(0.9954 0.0961 -0.0961 0.9954 31.6976 -37.9048)" style="fill:#A78B68;" width="87.941" height="19.076"/><rect id="rect3606-1" x="370.28" y="270.138" transform="matrix(0.9624 0.2716 -0.2716 0.9624 91.5304 -101.9961)" style="fill:#C19653;" width="87.936" height="19.075"/><rect id="rect3606-1-3" x="383.777" y="237.084" transform="matrix(0.856 0.517 -0.517 0.856 189.1012 -185.625)" style="fill:#D48C28;" width="87.937" height="19.075"/><rect id="rect3606-1-3-7" x="411.737" y="206.917" transform="matrix(0.5825 0.8129 -0.8129 0.5825 366.2216 -280.0464)" style="fill:#FE8908;" width="87.941" height="19.079"/><rect id="rect3606-1-3-7-6" x="451.216" y="191.163" transform="matrix(0.1648 0.9863 -0.9863 0.1648 611.5339 -320.7869)" style="fill:#FF7A15;" width="87.933" height="19.075"/></g></svg>